<?xml version="1.0" standalone="no"?>
<!DOCTYPE svg PUBLIC "-//W3C//DTD SVG 20010904//EN"
 "http://www.w3.org/TR/2001/REC-SVG-20010904/DTD/svg10.dtd">
<svg version="1.0" xmlns="http://www.w3.org/2000/svg"
 width="128.000000pt" height="128.000000pt" viewBox="0 0 128.000000 128.000000"
 preserveAspectRatio="xMidYMid meet">

<g transform="translate(0.000000,128.000000) scale(0.100000,-0.100000)"
fill="#000000" stroke="none">
<path d="M515 1145 c-168 -31 -255 -90 -288 -196 -36 -118 -49 -237 -44 -399
10 -293 60 -416 165 -414 42 1 167 56 236 103 24 17 49 31 55 31 6 0 33 -16
60 -35 53 -38 135 -77 199 -94 61 -17 115 7 141 62 39 83 56 199 56 392 0 346
-52 466 -228 524 -125 41 -230 49 -352 26z m317 -94 c116 -37 142 -73 174
-237 22 -114 22 -330 1 -435 -28 -138 -36 -158 -61 -165 -32 -8 -114 28 -204
88 -90 60 -113 61 -191 8 -98 -67 -203 -109 -230 -91 -18 12 -48 144 -62 272
-12 116 -3 250 27 379 27 119 63 154 195 190 96 26 252 22 351 -9z"/>
</g>
</svg>
