<?xml version="1.0" standalone="no"?>
<!DOCTYPE svg PUBLIC "-//W3C//DTD SVG 20010904//EN"
 "http://www.w3.org/TR/2001/REC-SVG-20010904/DTD/svg10.dtd">
<svg version="1.0" xmlns="http://www.w3.org/2000/svg"
 width="128.000000pt" height="128.000000pt" viewBox="0 0 128.000000 128.000000"
 preserveAspectRatio="xMidYMid meet">

<g transform="translate(0.000000,128.000000) scale(0.100000,-0.100000)"
fill="#000000" stroke="none">
<path d="M590 1162 c-170 -94 -371 -219 -398 -249 -45 -51 -55 -97 -55 -258 0
-259 39 -381 145 -452 131 -87 537 -95 695 -14 43 21 93 73 118 120 26 52 48
209 48 351 0 166 -11 209 -67 263 -48 47 -377 244 -422 252 -19 4 -41 -1 -64
-13z m250 -175 c234 -142 225 -129 224 -337 -1 -289 -50 -394 -194 -415 l-45
-7 0 149 c0 120 -3 154 -16 173 -44 68 -303 65 -342 -4 -8 -14 -12 -70 -12
-169 l0 -149 -45 7 c-131 19 -181 108 -196 350 -9 133 2 225 29 266 15 22 81
67 207 141 102 59 190 108 195 108 6 0 93 -51 195 -113z m-132 -468 c17 -6 34
-19 37 -30 9 -26 9 -199 0 -237 l-7 -32 -98 0 c-91 0 -99 2 -105 21 -8 26 -9
222 0 248 11 36 108 53 173 30z"/>
</g>
</svg>
