<?xml version="1.0" standalone="no"?>
<!DOCTYPE svg PUBLIC "-//W3C//DTD SVG 20010904//EN"
 "http://www.w3.org/TR/2001/REC-SVG-20010904/DTD/svg10.dtd">
<svg version="1.0" xmlns="http://www.w3.org/2000/svg"
 width="128.000000pt" height="128.000000pt" viewBox="0 0 128.000000 128.000000"
 preserveAspectRatio="xMidYMid meet">

<g transform="translate(0.000000,128.000000) scale(0.100000,-0.100000)"
fill="#000000" stroke="none">
<path d="M750 1190 c-25 -5 -70 -22 -100 -37 l-56 -28 -69 18 c-150 39 -278
-11 -336 -130 -30 -63 -31 -163 -1 -261 21 -67 22 -74 7 -89 -58 -58 -34 -148
51 -191 17 -9 22 -24 27 -83 11 -133 85 -233 206 -280 80 -32 242 -32 322 0
121 47 195 149 206 282 5 62 9 72 32 84 93 48 103 157 20 218 -58 42 -97 -20
-42 -67 39 -34 27 -70 -29 -88 l-43 -13 -6 -90 c-7 -106 -28 -156 -89 -207
-106 -91 -314 -91 -420 0 -61 51 -82 101 -89 207 l-6 90 -43 13 c-56 18 -68
54 -29 88 32 28 33 42 7 117 -57 160 -31 270 75 318 52 24 121 24 195 -1 l59
-20 72 38 c67 35 77 37 163 37 104 0 144 -16 184 -76 32 -46 27 -126 -9 -165
-53 -57 -93 -69 -224 -69 -108 0 -126 3 -176 26 -30 15 -70 40 -88 58 -17 17
-37 31 -44 31 -8 0 -26 -14 -43 -31 -16 -17 -45 -38 -64 -47 -42 -20 -52 -55
-20 -72 25 -13 67 -2 106 29 l26 20 32 -23 c59 -46 150 -69 271 -70 140 -1
199 17 265 83 149 149 42 372 -185 386 -39 2 -90 0 -115 -5z"/>
<path d="M467 612 c-22 -24 -21 -45 1 -65 24 -22 45 -21 65 1 22 24 21 45 -1
65 -24 22 -45 21 -65 -1z"/>
<path d="M747 612 c-22 -24 -21 -45 1 -65 24 -22 45 -21 65 1 22 24 21 45 -1
65 -24 22 -45 21 -65 -1z"/>
</g>
</svg>
